            <svg height="400" viewBox="205 70 400 600" width="400" xmlns="http://www.w3.org/2000/svg">

                <g style="fill:red; ">
                    <path d="M159.933,159.671l17.939,22.999c-1.365,2.833-2.575,5.756-3.618,8.742l-28.949,3.579c-2.757,0.341-4.828,2.683-4.828,5.461
			v37.2c0,2.777,2.071,5.12,4.828,5.461l28.95,3.576c1.042,2.984,2.253,5.905,3.618,8.737l-17.939,23
			c-1.708,2.19-1.517,5.311,0.447,7.274l26.304,26.313c1.965,1.965,5.086,2.156,7.277,0.447l22.998-17.944
			c2.828,1.363,5.75,2.572,8.738,3.616l3.576,28.953c0.34,2.758,2.684,4.828,5.461,4.828h37.203c2.777,0,5.121-2.07,5.461-4.828
			l3.576-28.953c2.986-1.043,5.908-2.252,8.74-3.617l23.006,17.945c2.189,1.709,5.311,1.518,7.275-0.448l26.299-26.311
			c1.965-1.965,2.156-5.084,0.447-7.274l-17.938-22.997c1.367-2.832,2.578-5.754,3.621-8.74l28.949-3.576
			c2.758-0.341,4.828-2.684,4.828-5.461v-37.2c0-2.778-2.07-5.12-4.828-5.461l-28.955-3.579c-1.045-2.989-2.254-5.912-3.617-8.742
			l17.939-22.999c1.709-2.191,1.518-5.313-0.447-7.276L319.989,126.1c-1.963-1.964-5.084-2.155-7.273-0.448l-23,17.933
			c-2.83-1.364-5.752-2.574-8.74-3.618l-3.576-28.945c-0.342-2.757-2.684-4.828-5.461-4.828h-37.203
			c-2.777,0-5.121,2.071-5.461,4.829l-3.576,28.945c-2.988,1.044-5.91,2.253-8.738,3.617l-23-17.938
			c-2.189-1.709-5.31-1.517-7.275,0.447l-26.303,26.301C158.417,154.359,158.225,157.48,159.933,159.671z M191.027,137.316
			l21.925,17.1c1.719,1.342,4.07,1.541,5.99,0.508c4.217-2.269,8.719-4.133,13.381-5.541c2.084-0.63,3.602-2.431,3.869-4.593
			l3.408-27.591h27.473l3.41,27.591c0.266,2.163,1.785,3.964,3.869,4.593c4.656,1.406,9.156,3.27,13.381,5.541
			c1.92,1.033,4.27,0.834,5.99-0.507l21.924-17.095l19.426,19.416l-17.102,21.922c-1.34,1.72-1.541,4.068-0.508,5.989
			c2.268,4.222,4.133,8.726,5.541,13.388c0.631,2.084,2.432,3.602,4.594,3.869l27.6,3.411v27.47l-27.594,3.408
			c-2.162,0.268-3.963,1.785-4.594,3.872c-1.402,4.65-3.27,9.15-5.545,13.374c-1.035,1.922-0.836,4.273,0.506,5.994l17.104,21.925
			l-19.422,19.431l-21.93-17.105c-1.719-1.342-4.068-1.541-5.99-0.508c-4.225,2.271-8.727,4.135-13.379,5.539
			c-2.086,0.629-3.605,2.431-3.871,4.594l-3.41,27.598H239.6l-3.408-27.598c-0.268-2.162-1.785-3.964-3.871-4.594
			c-4.66-1.407-9.162-3.271-13.379-5.539c-1.922-1.033-4.271-0.834-5.992,0.508l-21.922,17.105l-19.425-19.431l17.101-21.925
			c1.34-1.719,1.539-4.068,0.508-5.989c-2.274-4.23-4.139-8.732-5.542-13.38c-0.63-2.086-2.431-3.604-4.593-3.871l-27.594-3.408
			v-27.471l27.595-3.41c2.162-0.268,3.963-1.785,4.593-3.871c1.405-4.653,3.269-9.156,5.542-13.386
			c1.031-1.921,0.832-4.27-0.508-5.989l-17.1-21.922L191.027,137.316z" />
                    <path d="M253.337,263.69c24.611,0,44.633-20.022,44.633-44.633c0-24.614-20.022-44.64-44.633-44.64
			c-24.611,0-44.633,20.025-44.633,44.64C208.704,243.668,228.725,263.69,253.337,263.69z M253.337,185.424
			c18.541,0,33.627,15.088,33.627,33.634c0,18.542-15.086,33.627-33.627,33.627c-18.543,0-33.627-15.085-33.627-33.627
			C219.709,200.512,234.794,185.424,253.337,185.424z" />
                   
        </g>
    </svg>
   